<svg width="698.2150390625px" height="128.03500976562498px" xmlns="http://www.w3.org/2000/svg" viewBox="-99.10751953124998 10.982495117187511 698.2150390625 128.03500976562498" style="background: rgb(70, 149, 235);" preserveAspectRatio="xMidYMid"><defs><filter id="editing-lego" x="-100%" y="-100%" width="300%" height="300%"><feFlood flood-color="#000" result="f1"></feFlood><feFlood flood-color="#ff004a" result="f2"></feFlood><feMorphology operator="dilate" radius="3" in="SourceAlpha"></feMorphology><feConvolveMatrix order="5,5" divisor="1" result="cm1" kernelMatrix="0 1 1 1 0  1 0 0 0 1  1 0 0 0 1  1 0 0 0 1  0 1 1 1 0"></feConvolveMatrix><feComposite operator="in" in="f1" in2="cm1" result="c1"></feComposite><feMorphology operator="dilate" radius="3"></feMorphology><feConvolveMatrix order="5,5" divisor="1" result="cm2" kernelMatrix="0 1 1 1 0  1 0 0 0 1  1 0 0 0 1  1 0 0 0 1  0 1 1 1 0"></feConvolveMatrix><feComposite operator="in" in="f2" in2="cm2" result="c2"></feComposite><feMerge><feMergeNode in="c2"></feMergeNode><feMergeNode in="c1"></feMergeNode><feMergeNode in="SourceGraphic"></feMergeNode></feMerge></filter></defs><g filter="url(#editing-lego)"><g transform="translate(0.2350006103515625, 103.73500061035156)"><path d="M33.81 11.63L21.66 0L11.31 0L3-8.28L3-33.19L11.31-41.47L21.97-41.47L21.97-33.19L16.81-33.19L16.81-8.28L27.75-8.28L41.22 4.44L33.81 11.63ZM43.09-33.19L43.09-8.28L37.13-2.25L29.28-9.50L29.28-33.19L24.09-33.19L24.09-41.47L34.81-41.47L43.09-33.19ZM71.28-33.19L85.09-33.19L85.09 0L71.28 0L71.28-33.19ZM62.94-33.19L62.94-8.28L69.09-8.28L69.09-4.16L65.09 0L57.44 0L49.13-8.28L49.13-33.19L62.94-33.19ZM126.97 0L113.47 0L113.47-24.91L93.81-24.91L93.81-29.03L97.97-33.19L118.69-33.19L126.97-24.91L126.97 0ZM96.59-19.31L111.28-19.31L111.28-13.56L104.16-13.56L104.16-7.75L111.28-7.75L111.28-4.09L107.16 0L96.59 0L91.03-5.47L91.03-13.78L96.59-19.31ZM155.09-16.84L155.09-24.91L149.22-24.91L149.22-28.53L153.84-33.19L162.22-33.19L168.94-25.44L168.94-16.84L155.09-16.84ZM147 0L133.19 0L133.19-33.19L147-33.19L147 0ZM187-45.84L187 0L173.19 0L173.19-45.84L187-45.84ZM209.81-33.16L189.16-4.69L189.16-23.63L195.53-33.13L209.81-33.16ZM201.41-17.69L210.53 0L195.53 0L193.25-6.69L201.41-17.69ZM236.06-33.19L249.88-33.19L249.88 0L236.06 0L236.06-33.19ZM227.72-33.19L227.72-8.28L233.88-8.28L233.88-4.16L229.88 0L222.22 0L213.91-8.28L213.91-33.19L227.72-33.19ZM256.13-25.75L263.59-33.19L269.13-33.19L269.13-21.47L284.88-21.47L292.06-14.22L292.06-7.75L284.34 0L278.25 0L278.25-12.53L263.31-12.53L256.13-19.44L256.13-25.75ZM269.94-9.50L269.94-6.09L276.06-6.09L276.06 0L261.84-0.03L256.09-6.84L256.09-9.50L269.94-9.50ZM278.25-24.50L278.25-27.09L271.31-27.09L271.31-33.19L286-33.19L290.94-28.25L290.94-24.50L278.25-24.50ZM297.88 0L297.88-41.47L311.69-41.47L311.69-22.94L324.44-22.94L324.44-14.78L311.69-14.78L311.69 0L297.88 0ZM321.13-33.19L313.88-33.19L313.88-41.47L334.94-41.47L334.94-27.72L321.13-27.72L321.13-33.19ZM371.69 0L358.19 0L358.19-24.91L338.53-24.91L338.53-29.03L342.69-33.19L363.41-33.19L371.69-24.91L371.69 0ZM341.31-19.31L356-19.31L356-13.56L348.88-13.56L348.88-7.75L356-7.75L356-4.09L351.88 0L341.31 0L335.75-5.47L335.75-13.78L341.31-19.31ZM391.44-33.19L391.44 0L385.91 0L377.63-8.28L377.63-24.91L385.91-33.19L391.44-33.19ZM399.75-24.91L393.63-24.91L393.63-33.19L405.28-33.19L413.56-24.91L413.56-19.94L399.75-19.94L399.75-24.91ZM405.28 0L393.63 0L393.63-7.75L399.75-7.75L399.75-11.91L413.56-11.91L413.56-8.28L405.28 0ZM432.78-33.19L432.78 0L427.25 0L418.97-8.28L418.97-24.91L427.25-33.19L432.78-33.19ZM454.97-13.31L434.97-13.31L434.97-19.09L442.25-19.09L442.25-24.91L434.97-24.91L434.97-33.19L446.69-33.19L454.97-24.91L454.97-13.31ZM449.41 0L434.97 0L434.97-7.75L453.53-7.75L453.53-4.16L449.41 0ZM460.59-25.75L468.06-33.19L473.59-33.19L473.59-21.47L489.34-21.47L496.53-14.22L496.53-7.75L488.81 0L482.72 0L482.72-12.53L467.78-12.53L460.59-19.44L460.59-25.75ZM474.41-9.50L474.41-6.09L480.53-6.09L480.53 0L466.31-0.03L460.56-6.84L460.56-9.50L474.41-9.50ZM482.72-24.50L482.72-27.09L475.78-27.09L475.78-33.19L490.47-33.19L495.41-28.25L495.41-24.50L482.72-24.50Z" fill="#fff"></path></g></g><style>text {
  font-size: 64px;
  font-family: Arial Black;
  dominant-baseline: central;
  text-anchor: middle;
}</style></svg>